<svg id="visual" viewBox="0 0 960 540" width="960" height="540" xmlns="http://www.w3.org/2000/svg" xmlns:xlink="http://www.w3.org/1999/xlink" version="1.1"><rect x="0" y="0" width="960" height="540" fill="#000"></rect><path d="M0 378L32 372C64 366 128 354 192 342.2C256 330.3 320 318.7 384 324.5C448 330.3 512 353.7 576 356.5C640 359.3 704 341.7 768 341.5C832 341.3 896 358.7 928 367.3L960 376L960 541L928 541C896 541 832 541 768 541C704 541 640 541 576 541C512 541 448 541 384 541C320 541 256 541 192 541C128 541 64 541 32 541L0 541Z" fill="#0f0f0f"></path><path d="M0 376L32 389C64 402 128 428 192 429.3C256 430.7 320 407.3 384 407.5C448 407.7 512 431.3 576 441.7C640 452 704 449 768 440.5C832 432 896 418 928 411L960 404L960 541L928 541C896 541 832 541 768 541C704 541 640 541 576 541C512 541 448 541 384 541C320 541 256 541 192 541C128 541 64 541 32 541L0 541Z" fill="#202020"></path><path d="M0 468L32 468.8C64 469.7 128 471.3 192 467.5C256 463.7 320 454.3 384 448.5C448 442.7 512 440.3 576 448.5C640 456.7 704 475.3 768 476C832 476.7 896 459.3 928 450.7L960 442L960 541L928 541C896 541 832 541 768 541C704 541 640 541 576 541C512 541 448 541 384 541C320 541 256 541 192 541C128 541 64 541 32 541L0 541Z" fill="#313131"></path></svg>