<svg id="visual" viewBox="0 0 960 540" width="960" height="540" xmlns="http://www.w3.org/2000/svg" xmlns:xlink="http://www.w3.org/1999/xlink" version="1.1"><rect x="0" y="0" width="960" height="540" fill="#000"></rect><path d="M0 48L17.8 52.8C35.7 57.7 71.3 67.3 106.8 73.5C142.3 79.7 177.7 82.3 213.2 75.8C248.7 69.3 284.3 53.7 320 45C355.7 36.3 391.3 34.7 426.8 39C462.3 43.3 497.7 53.7 533.2 56.8C568.7 60 604.3 56 640 51.3C675.7 46.7 711.3 41.3 746.8 40.3C782.3 39.3 817.7 42.7 853.2 49.5C888.7 56.3 924.3 66.7 942.2 71.8L960 77L960 0L942.2 0C924.3 0 888.7 0 853.2 0C817.7 0 782.3 0 746.8 0C711.3 0 675.7 0 640 0C604.3 0 568.7 0 533.2 0C497.7 0 462.3 0 426.8 0C391.3 0 355.7 0 320 0C284.3 0 248.7 0 213.2 0C177.7 0 142.3 0 106.8 0C71.3 0 35.7 0 17.8 0L0 0Z" fill="#0f0f0f" stroke-linecap="round" stroke-linejoin="miter"></path></svg>